<mxfile host="app.diagrams.net" agent="Mozilla/5.0 (Windows NT 10.0; Win64; x64) AppleWebKit/537.36 (KHTML, like Gecko) Chrome/132.0.0.0 YaBrowser/25.2.0.0 Safari/537.36" version="26.0.16">
  <diagram name="Страница — 1" id="DRzDfDwxR9qo51_UMOIM">
    <mxGraphModel dx="1050" dy="663" grid="0" gridSize="10" guides="1" tooltips="1" connect="1" arrows="1" fold="1" page="1" pageScale="1" pageWidth="827" pageHeight="1169" math="0" shadow="0">
      <root>
        <mxCell id="0" />
        <mxCell id="1" parent="0" />
        <mxCell id="4b1qs6N_Xy6fYBynXDgJ-1" value="Гость" style="shape=umlActor;verticalLabelPosition=bottom;verticalAlign=top;html=1;" parent="1" vertex="1">
          <mxGeometry x="140" y="160" width="30" height="60" as="geometry" />
        </mxCell>
        <mxCell id="4b1qs6N_Xy6fYBynXDgJ-2" value="Администратор" style="shape=umlActor;verticalLabelPosition=bottom;verticalAlign=top;html=1;" parent="1" vertex="1">
          <mxGeometry x="610" y="250" width="30" height="60" as="geometry" />
        </mxCell>
        <mxCell id="4b1qs6N_Xy6fYBynXDgJ-3" value="Клиент" style="shape=umlActor;verticalLabelPosition=bottom;verticalAlign=top;html=1;" parent="1" vertex="1">
          <mxGeometry x="140" y="290" width="30" height="60" as="geometry" />
        </mxCell>
        <mxCell id="4b1qs6N_Xy6fYBynXDgJ-4" value="Консультант" style="shape=umlActor;verticalLabelPosition=bottom;verticalAlign=top;html=1;" parent="1" vertex="1">
          <mxGeometry x="500" y="150" width="30" height="60" as="geometry" />
        </mxCell>
        <mxCell id="4b1qs6N_Xy6fYBynXDgJ-6" value="Написать сообщение" style="ellipse;whiteSpace=wrap;html=1;" parent="1" vertex="1">
          <mxGeometry x="290" y="110" width="100" height="30" as="geometry" />
        </mxCell>
        <mxCell id="4b1qs6N_Xy6fYBynXDgJ-8" value="" style="endArrow=none;endFill=0;endSize=12;html=1;rounded=0;exitX=1;exitY=0.5;exitDx=0;exitDy=0;" parent="1" source="4b1qs6N_Xy6fYBynXDgJ-6" edge="1">
          <mxGeometry width="160" relative="1" as="geometry">
            <mxPoint x="350" y="240" as="sourcePoint" />
            <mxPoint x="500" y="170" as="targetPoint" />
          </mxGeometry>
        </mxCell>
        <mxCell id="4b1qs6N_Xy6fYBynXDgJ-9" value="" style="endArrow=none;endFill=0;endSize=12;html=1;rounded=0;entryX=0;entryY=0.5;entryDx=0;entryDy=0;exitX=0.75;exitY=0.1;exitDx=0;exitDy=0;exitPerimeter=0;" parent="1" source="4b1qs6N_Xy6fYBynXDgJ-1" target="4b1qs6N_Xy6fYBynXDgJ-6" edge="1">
          <mxGeometry width="160" relative="1" as="geometry">
            <mxPoint x="190" y="160" as="sourcePoint" />
            <mxPoint x="290" y="205" as="targetPoint" />
          </mxGeometry>
        </mxCell>
        <mxCell id="4b1qs6N_Xy6fYBynXDgJ-10" value="Принять заказ" style="ellipse;whiteSpace=wrap;html=1;" parent="1" vertex="1">
          <mxGeometry x="465" y="80" width="100" height="30" as="geometry" />
        </mxCell>
        <mxCell id="4b1qs6N_Xy6fYBynXDgJ-11" value="" style="endArrow=none;endFill=0;endSize=12;html=1;rounded=0;exitX=0.5;exitY=1;exitDx=0;exitDy=0;entryX=0.5;entryY=0;entryDx=0;entryDy=0;entryPerimeter=0;" parent="1" source="4b1qs6N_Xy6fYBynXDgJ-10" target="4b1qs6N_Xy6fYBynXDgJ-4" edge="1">
          <mxGeometry width="160" relative="1" as="geometry">
            <mxPoint x="400" y="135" as="sourcePoint" />
            <mxPoint x="528" y="176" as="targetPoint" />
          </mxGeometry>
        </mxCell>
        <mxCell id="4b1qs6N_Xy6fYBynXDgJ-13" value="Оформить заказ" style="ellipse;whiteSpace=wrap;html=1;" parent="1" vertex="1">
          <mxGeometry x="290" y="400" width="100" height="30" as="geometry" />
        </mxCell>
        <mxCell id="4b1qs6N_Xy6fYBynXDgJ-16" value="&lt;font style=&quot;font-size: 11px;&quot;&gt;Использовать калькулятор&lt;/font&gt;" style="ellipse;whiteSpace=wrap;html=1;" parent="1" vertex="1">
          <mxGeometry x="290" y="150" width="100" height="30" as="geometry" />
        </mxCell>
        <mxCell id="4b1qs6N_Xy6fYBynXDgJ-17" value="" style="endArrow=none;endFill=0;endSize=12;html=1;rounded=0;entryX=0;entryY=0.5;entryDx=0;entryDy=0;exitX=0.75;exitY=0.1;exitDx=0;exitDy=0;exitPerimeter=0;" parent="1" source="4b1qs6N_Xy6fYBynXDgJ-1" target="4b1qs6N_Xy6fYBynXDgJ-16" edge="1">
          <mxGeometry width="160" relative="1" as="geometry">
            <mxPoint x="173" y="176" as="sourcePoint" />
            <mxPoint x="300" y="135" as="targetPoint" />
          </mxGeometry>
        </mxCell>
        <mxCell id="4b1qs6N_Xy6fYBynXDgJ-18" value="&lt;font style=&quot;font-size: 11px;&quot;&gt;Прочитать пост&lt;/font&gt;" style="ellipse;whiteSpace=wrap;html=1;" parent="1" vertex="1">
          <mxGeometry x="290" y="190" width="100" height="30" as="geometry" />
        </mxCell>
        <mxCell id="4b1qs6N_Xy6fYBynXDgJ-19" value="" style="endArrow=none;endFill=0;endSize=12;html=1;rounded=0;entryX=0;entryY=0.5;entryDx=0;entryDy=0;exitX=0.75;exitY=0.1;exitDx=0;exitDy=0;exitPerimeter=0;" parent="1" source="4b1qs6N_Xy6fYBynXDgJ-1" target="4b1qs6N_Xy6fYBynXDgJ-18" edge="1">
          <mxGeometry width="160" relative="1" as="geometry">
            <mxPoint x="173" y="176" as="sourcePoint" />
            <mxPoint x="300" y="175" as="targetPoint" />
          </mxGeometry>
        </mxCell>
        <mxCell id="4b1qs6N_Xy6fYBynXDgJ-20" value="Написать отзыв" style="ellipse;whiteSpace=wrap;html=1;" parent="1" vertex="1">
          <mxGeometry x="290" y="280" width="100" height="30" as="geometry" />
        </mxCell>
        <mxCell id="4b1qs6N_Xy6fYBynXDgJ-21" value="" style="endArrow=none;endFill=0;endSize=12;html=1;rounded=0;entryX=0;entryY=0.5;entryDx=0;entryDy=0;exitX=0.75;exitY=0.1;exitDx=0;exitDy=0;exitPerimeter=0;" parent="1" source="4b1qs6N_Xy6fYBynXDgJ-3" target="4b1qs6N_Xy6fYBynXDgJ-13" edge="1">
          <mxGeometry width="160" relative="1" as="geometry">
            <mxPoint x="170" y="311" as="sourcePoint" />
            <mxPoint x="297" y="310" as="targetPoint" />
          </mxGeometry>
        </mxCell>
        <mxCell id="4b1qs6N_Xy6fYBynXDgJ-22" value="" style="endArrow=none;endFill=0;endSize=12;html=1;rounded=0;entryX=0;entryY=0.5;entryDx=0;entryDy=0;exitX=0.75;exitY=0.1;exitDx=0;exitDy=0;exitPerimeter=0;" parent="1" source="4b1qs6N_Xy6fYBynXDgJ-3" target="4b1qs6N_Xy6fYBynXDgJ-20" edge="1">
          <mxGeometry width="160" relative="1" as="geometry">
            <mxPoint x="163" y="345.5" as="sourcePoint" />
            <mxPoint x="290" y="344.5" as="targetPoint" />
          </mxGeometry>
        </mxCell>
        <mxCell id="4b1qs6N_Xy6fYBynXDgJ-23" value="&lt;font style=&quot;font-size: 9px;&quot;&gt;Изменить &lt;br&gt;личные данные&lt;/font&gt;" style="ellipse;whiteSpace=wrap;html=1;" parent="1" vertex="1">
          <mxGeometry x="290" y="320" width="100" height="30" as="geometry" />
        </mxCell>
        <mxCell id="4b1qs6N_Xy6fYBynXDgJ-24" value="" style="endArrow=none;endFill=0;endSize=12;html=1;rounded=0;entryX=0;entryY=0.5;entryDx=0;entryDy=0;exitX=0.75;exitY=0.1;exitDx=0;exitDy=0;exitPerimeter=0;" parent="1" source="4b1qs6N_Xy6fYBynXDgJ-3" target="4b1qs6N_Xy6fYBynXDgJ-23" edge="1">
          <mxGeometry width="160" relative="1" as="geometry">
            <mxPoint x="163" y="451" as="sourcePoint" />
            <mxPoint x="290" y="410" as="targetPoint" />
          </mxGeometry>
        </mxCell>
        <mxCell id="4b1qs6N_Xy6fYBynXDgJ-25" value="&lt;font style=&quot;font-size: 9px;&quot;&gt;Выполнить&amp;nbsp;&lt;span style=&quot;background-color: initial;&quot;&gt;анализ расходов&lt;/span&gt;&lt;/font&gt;" style="ellipse;whiteSpace=wrap;html=1;" parent="1" vertex="1">
          <mxGeometry x="290" y="360" width="100" height="30" as="geometry" />
        </mxCell>
        <mxCell id="4b1qs6N_Xy6fYBynXDgJ-26" value="" style="endArrow=none;endFill=0;endSize=12;html=1;rounded=0;entryX=0;entryY=0.5;entryDx=0;entryDy=0;exitX=0.75;exitY=0.1;exitDx=0;exitDy=0;exitPerimeter=0;" parent="1" source="4b1qs6N_Xy6fYBynXDgJ-3" target="4b1qs6N_Xy6fYBynXDgJ-25" edge="1">
          <mxGeometry width="160" relative="1" as="geometry">
            <mxPoint x="173" y="346" as="sourcePoint" />
            <mxPoint x="300" y="345" as="targetPoint" />
          </mxGeometry>
        </mxCell>
        <mxCell id="4b1qs6N_Xy6fYBynXDgJ-27" value="Выбрать услуги" style="ellipse;whiteSpace=wrap;html=1;" parent="1" vertex="1">
          <mxGeometry x="290" y="460" width="100" height="30" as="geometry" />
        </mxCell>
        <mxCell id="4b1qs6N_Xy6fYBynXDgJ-28" value="&quot;include&quot;" style="endArrow=open;endSize=12;dashed=1;html=1;rounded=0;exitX=0.5;exitY=0;exitDx=0;exitDy=0;entryX=0.511;entryY=0.895;entryDx=0;entryDy=0;entryPerimeter=0;" parent="1" source="4b1qs6N_Xy6fYBynXDgJ-27" target="4b1qs6N_Xy6fYBynXDgJ-13" edge="1">
          <mxGeometry width="160" relative="1" as="geometry">
            <mxPoint x="340" y="250" as="sourcePoint" />
            <mxPoint x="390" y="295" as="targetPoint" />
            <mxPoint as="offset" />
          </mxGeometry>
        </mxCell>
        <mxCell id="4b1qs6N_Xy6fYBynXDgJ-29" value="Зарегистрироваться" style="ellipse;whiteSpace=wrap;html=1;" parent="1" vertex="1">
          <mxGeometry x="10" y="90" width="120" height="30" as="geometry" />
        </mxCell>
        <mxCell id="4b1qs6N_Xy6fYBynXDgJ-30" value="" style="endArrow=none;endFill=0;endSize=12;html=1;rounded=0;entryX=1;entryY=1;entryDx=0;entryDy=0;exitX=0.5;exitY=0;exitDx=0;exitDy=0;exitPerimeter=0;" parent="1" source="4b1qs6N_Xy6fYBynXDgJ-1" target="4b1qs6N_Xy6fYBynXDgJ-29" edge="1">
          <mxGeometry width="160" relative="1" as="geometry">
            <mxPoint x="173" y="176" as="sourcePoint" />
            <mxPoint x="300" y="135" as="targetPoint" />
          </mxGeometry>
        </mxCell>
        <mxCell id="4b1qs6N_Xy6fYBynXDgJ-31" value="Войти в аккаунт" style="ellipse;whiteSpace=wrap;html=1;" parent="1" vertex="1">
          <mxGeometry x="170" y="80" width="120" height="30" as="geometry" />
        </mxCell>
        <mxCell id="4b1qs6N_Xy6fYBynXDgJ-33" value="" style="endArrow=none;endFill=0;endSize=12;html=1;rounded=0;exitX=0.5;exitY=0;exitDx=0;exitDy=0;exitPerimeter=0;entryX=0;entryY=1;entryDx=0;entryDy=0;" parent="1" source="4b1qs6N_Xy6fYBynXDgJ-1" target="4b1qs6N_Xy6fYBynXDgJ-31" edge="1">
          <mxGeometry width="160" relative="1" as="geometry">
            <mxPoint x="165" y="170" as="sourcePoint" />
            <mxPoint x="190" y="130" as="targetPoint" />
          </mxGeometry>
        </mxCell>
        <mxCell id="4b1qs6N_Xy6fYBynXDgJ-34" value="" style="endArrow=none;endFill=0;endSize=12;html=1;rounded=0;entryX=0;entryY=0.5;entryDx=0;entryDy=0;exitX=0.75;exitY=0.1;exitDx=0;exitDy=0;exitPerimeter=0;" parent="1" source="4b1qs6N_Xy6fYBynXDgJ-3" target="4b1qs6N_Xy6fYBynXDgJ-18" edge="1">
          <mxGeometry width="160" relative="1" as="geometry">
            <mxPoint x="150" y="291" as="sourcePoint" />
            <mxPoint x="277" y="250" as="targetPoint" />
          </mxGeometry>
        </mxCell>
        <mxCell id="4b1qs6N_Xy6fYBynXDgJ-35" value="" style="endArrow=none;endFill=0;endSize=12;html=1;rounded=0;entryX=0;entryY=0.5;entryDx=0;entryDy=0;exitX=0.75;exitY=0.1;exitDx=0;exitDy=0;exitPerimeter=0;" parent="1" source="4b1qs6N_Xy6fYBynXDgJ-3" target="4b1qs6N_Xy6fYBynXDgJ-16" edge="1">
          <mxGeometry width="160" relative="1" as="geometry">
            <mxPoint x="110" y="330" as="sourcePoint" />
            <mxPoint x="237" y="199" as="targetPoint" />
          </mxGeometry>
        </mxCell>
        <mxCell id="4b1qs6N_Xy6fYBynXDgJ-36" value="" style="endArrow=none;endFill=0;endSize=12;html=1;rounded=0;entryX=0;entryY=0.5;entryDx=0;entryDy=0;exitX=0.75;exitY=0.1;exitDx=0;exitDy=0;exitPerimeter=0;" parent="1" source="4b1qs6N_Xy6fYBynXDgJ-3" target="4b1qs6N_Xy6fYBynXDgJ-6" edge="1">
          <mxGeometry width="160" relative="1" as="geometry">
            <mxPoint x="150" y="320" as="sourcePoint" />
            <mxPoint x="277" y="149" as="targetPoint" />
          </mxGeometry>
        </mxCell>
        <mxCell id="4b1qs6N_Xy6fYBynXDgJ-40" value="Написать пост" style="ellipse;whiteSpace=wrap;html=1;" parent="1" vertex="1">
          <mxGeometry x="414" y="260" width="100" height="30" as="geometry" />
        </mxCell>
        <mxCell id="4b1qs6N_Xy6fYBynXDgJ-41" value="&lt;font style=&quot;font-size: 9px;&quot;&gt;Изменить стоимость услуги&lt;/font&gt;" style="ellipse;whiteSpace=wrap;html=1;" parent="1" vertex="1">
          <mxGeometry x="414" y="300" width="100" height="30" as="geometry" />
        </mxCell>
        <mxCell id="4b1qs6N_Xy6fYBynXDgJ-45" value="" style="endArrow=none;endFill=0;endSize=12;html=1;rounded=0;exitX=1;exitY=0.5;exitDx=0;exitDy=0;entryX=0.25;entryY=0.1;entryDx=0;entryDy=0;entryPerimeter=0;" parent="1" source="4b1qs6N_Xy6fYBynXDgJ-40" target="4b1qs6N_Xy6fYBynXDgJ-2" edge="1">
          <mxGeometry width="160" relative="1" as="geometry">
            <mxPoint x="400" y="265" as="sourcePoint" />
            <mxPoint x="598" y="266" as="targetPoint" />
          </mxGeometry>
        </mxCell>
        <mxCell id="4b1qs6N_Xy6fYBynXDgJ-46" value="" style="endArrow=none;endFill=0;endSize=12;html=1;rounded=0;exitX=0.997;exitY=0.381;exitDx=0;exitDy=0;entryX=0.25;entryY=0.1;entryDx=0;entryDy=0;entryPerimeter=0;exitPerimeter=0;" parent="1" source="4b1qs6N_Xy6fYBynXDgJ-41" target="4b1qs6N_Xy6fYBynXDgJ-2" edge="1">
          <mxGeometry width="160" relative="1" as="geometry">
            <mxPoint x="524" y="305" as="sourcePoint" />
            <mxPoint x="598" y="266" as="targetPoint" />
          </mxGeometry>
        </mxCell>
        <mxCell id="4b1qs6N_Xy6fYBynXDgJ-47" value="&lt;font style=&quot;font-size: 9px;&quot;&gt;Добавить услугу&lt;/font&gt;" style="ellipse;whiteSpace=wrap;html=1;" parent="1" vertex="1">
          <mxGeometry x="414" y="340" width="100" height="30" as="geometry" />
        </mxCell>
        <mxCell id="4b1qs6N_Xy6fYBynXDgJ-48" value="" style="endArrow=none;endFill=0;endSize=12;html=1;rounded=0;exitX=1;exitY=0.5;exitDx=0;exitDy=0;entryX=0.25;entryY=0.1;entryDx=0;entryDy=0;entryPerimeter=0;" parent="1" source="4b1qs6N_Xy6fYBynXDgJ-47" target="4b1qs6N_Xy6fYBynXDgJ-2" edge="1">
          <mxGeometry width="160" relative="1" as="geometry">
            <mxPoint x="524" y="321" as="sourcePoint" />
            <mxPoint x="598" y="266" as="targetPoint" />
          </mxGeometry>
        </mxCell>
        <mxCell id="4b1qs6N_Xy6fYBynXDgJ-49" value="&lt;font style=&quot;font-size: 9px;&quot;&gt;Удалить услугу&lt;/font&gt;" style="ellipse;whiteSpace=wrap;html=1;" parent="1" vertex="1">
          <mxGeometry x="414" y="380" width="100" height="30" as="geometry" />
        </mxCell>
        <mxCell id="4b1qs6N_Xy6fYBynXDgJ-50" value="" style="endArrow=none;endFill=0;endSize=12;html=1;rounded=0;exitX=1;exitY=0.5;exitDx=0;exitDy=0;entryX=0.25;entryY=0.1;entryDx=0;entryDy=0;entryPerimeter=0;" parent="1" source="4b1qs6N_Xy6fYBynXDgJ-49" target="4b1qs6N_Xy6fYBynXDgJ-2" edge="1">
          <mxGeometry width="160" relative="1" as="geometry">
            <mxPoint x="524" y="365" as="sourcePoint" />
            <mxPoint x="598" y="266" as="targetPoint" />
          </mxGeometry>
        </mxCell>
        <mxCell id="4b1qs6N_Xy6fYBynXDgJ-51" value="&lt;font style=&quot;font-size: 9px;&quot;&gt;Редактировать услугу&lt;/font&gt;" style="ellipse;whiteSpace=wrap;html=1;" parent="1" vertex="1">
          <mxGeometry x="414" y="420" width="100" height="30" as="geometry" />
        </mxCell>
        <mxCell id="4b1qs6N_Xy6fYBynXDgJ-52" value="" style="endArrow=none;endFill=0;endSize=12;html=1;rounded=0;exitX=1;exitY=0.5;exitDx=0;exitDy=0;entryX=0.25;entryY=0.1;entryDx=0;entryDy=0;entryPerimeter=0;" parent="1" source="4b1qs6N_Xy6fYBynXDgJ-51" target="4b1qs6N_Xy6fYBynXDgJ-2" edge="1">
          <mxGeometry width="160" relative="1" as="geometry">
            <mxPoint x="524" y="405" as="sourcePoint" />
            <mxPoint x="618" y="266" as="targetPoint" />
          </mxGeometry>
        </mxCell>
      </root>
    </mxGraphModel>
  </diagram>
</mxfile>
